# xmcd
# 
# Track frame offsets:
#     150
#     10742
#     18528
#     25733
#     36096
#     39301
#     43273
#     50243
#     56722
#     74954
#     95464
#     113595
#     132424
# 
# Disc length: 1984
# 
# Revision: 0
# Processed by: cddbd v1.5.2PL0 Copyright (c) Steve Scherf et al.
# Submitted via: BonkEnc v1.0.8
# 
DISCID=b707be0d
DTITLE=Leonardo - Leonardo Ao Vivo - CD 1
DYEAR=1999
DGENRE=
TTITLE0=Negro Gato/Vem Quente Que Eu Estou Fervendo
TTITLE1=Entre Tapas E Beijos/Gatinha Manhosa
TTITLE2=Custe O Que Custar/Quando
TTITLE3=Sentado À Beira Do Caminho/Não Olhe Assim
TTITLE4=Feche Os Olhos (All My Loving)
TTITLE5=O Calhambeque (Road Hog)
TTITLE6=O Bom/Rua Augusta
TTITLE7=Negro Gato
TTITLE8=Um Sonhador
TTITLE9=Temporal De Amor
TTITLE10=Dia De Rodeio
TTITLE11=Amor Dividido
TTITLE12=Entre Tapas E Beijos
EXTD=YEAR: 1999
EXTT0=
EXTT1=
EXTT2=
EXTT3=
EXTT4=
EXTT5=
EXTT6=
EXTT7=
EXTT8=
EXTT9=
EXTT10=
EXTT11=
EXTT12=
PLAYORDER=
